<svg xmlns:x="http://ns.adobe.com/Extensibility/1.0/" xmlns:i="http://ns.adobe.com/AdobeIllustrator/10.0/" xmlns:graph="http://ns.adobe.com/Graphs/1.0/" xmlns="http://www.w3.org/2000/svg" xmlns:xlink="http://www.w3.org/1999/xlink" version="1.1" x="0px" y="0px" viewBox="0 0 100 125" enable-background="new 0 0 100 100" xml:space="preserve"><metadata><sfw xmlns="http://ns.adobe.com/SaveForWeb/1.0/"><slices/><sliceSourceBounds width="1448.6" height="1442.5" x="0.7" y="-1444.9" bottomLeftOrigin="true"/></sfw></metadata><path d="M67.8,18.8v11.1c0,0,0,0-0.1,0c-1.6,0.1-3.2,0.4-4.7,0.9c-1.7,0.6-3.3,1.4-4.9,2.4c-1.6,1-3.1,2.3-4.4,3.7  c-1.1,1.1-2.1,2.4-2.9,3.6H35.1V11c-8.6,5.8-16.5,9-24.8,9.8v5.9c0,4.5,0,9.2,0,13.9h24.8v28.5c0.6-0.2,1.1-0.5,1.6-0.6  c1.7-0.8,3.4-1.6,5.1-2.3c2.2-1.1,4.1-2.4,5.9-3.7c0.4,1.4,1.2,3.7,2.6,5.6c0.2,0.6,0.3,1.2,0.6,1.8c-0.3,0.2-0.6,0.4-0.9,0.6  c-1,0.6-2,1.2-3.1,1.9c-0.5,0.3-0.9,0.6-1.4,0.8c-1.9,1.1-3.7,1.9-5.6,2.6l-2.3,0.9c-0.6,0.3-1.4,0.5-2.3,0.5  c-0.6,0-1.2-0.2-1.9-0.3c-9-3.3-15.9-7.6-21.5-13.2C7.3,59,4.6,54.3,3.4,49c-0.5-2.3-0.8-4.5-0.6-6.5c0-5.3,0-10.4,0-15.7v-7.8  c0-4.8,3.4-5.6,5.4-5.8c7.6-0.5,15.1-3.4,23.5-9.2c0.9-0.6,2-1.4,3.6-1.4c1.6,0,2.6,0.8,3.7,1.6c6.2,4.4,11.8,7,17.6,8.3  c1.6,0.3,3.3,0.6,5,0.8l1.2,0.2C66,13.8,67.8,15.8,67.8,18.8z M78.7,42.3c0,0-0.9-1.8-3.4-3.2c-1.6-1-3.9-1.7-7-1.5  c-1,0-1.9,0.2-2.8,0.5l0,0c-1.1,0.4-2.1,0.9-3.1,1.6c-1.1,0.7-2.2,1.6-3.1,2.6c-1.5,1.5-2.8,3.5-3.4,6c-0.5,2.1-0.5,4.3,0.3,6.6  c-1.1-0.1-2.4,0.5-1.2,4.9c0.9,3.2,1.7,4.1,2.4,4.1c0.3,1.8,0.9,3.9,1.9,5.7l0,4.2c0,0.2-0.1,0.4-0.3,0.5c-1.5,0.7-8.3,4.2-15.1,9.4  c-2.3,1.8-3.7,4.6-3.7,7.5v4.4c0,1,0.8,1.8,1.8,1.8h53.4c1,0,1.8-0.8,1.8-1.8v-4.4c0-2.9-1.3-5.7-3.7-7.5C86.8,78.5,80,75,78.5,74.3  c-0.2-0.1-0.3-0.3-0.3-0.5c0-0.8,0-2.7,0-4.8c0.7-1.5,1.2-3.1,1.4-4.5c0.6,0.4,1.7,0.2,2.9-4c1-3.4,0.4-4.6-0.5-4.8  C84.8,42.7,78.7,42.3,78.7,42.3z"/><text x="0" y="115" fill="#000000" font-size="5px" font-weight="bold" font-family="'Helvetica Neue', Helvetica, Arial-Unicode, Arial, Sans-serif">Created by Gregor Cresnar</text><text x="0" y="120" fill="#000000" font-size="5px" font-weight="bold" font-family="'Helvetica Neue', Helvetica, Arial-Unicode, Arial, Sans-serif">from the Noun Project</text></svg>